<?xml version="1.0" standalone="no"?><!DOCTYPE svg PUBLIC "-//W3C//DTD SVG 1.1//EN" "http://www.w3.org/Graphics/SVG/1.1/DTD/svg11.dtd"><svg t="1753438283989" class="icon" viewBox="0 0 1024 1024" version="1.1" xmlns="http://www.w3.org/2000/svg" p-id="5566" xmlns:xlink="http://www.w3.org/1999/xlink" width="200" height="200"><path d="M533.15876571 508.94338709m-472.58737777 0a472.58737778 472.58737778 0 1 0 945.17475555 0 472.58737778 472.58737778 0 1 0-945.17475555 0Z" fill="#1296db" p-id="5567"></path><path d="M514.1775983 1017.44206563a508.83849482 508.83849482 0 0 1-477.45403259-683.8560237 10.06098963 10.06098963 0 0 1 18.89621334 6.94196146 486.81111703 486.81111703 0 0 0-29.80674371 168.40324741c0 269.29227852 219.08442075 488.37669925 488.37669925 488.37669926s488.36456297-219.07228445 488.36456298-488.36456297a487.17520592 487.17520592 0 0 0-73.09691261-257.13170962 10.06098963 10.06098963 0 0 1 17.10004149-10.61925927A508.35304297 508.35304297 0 0 1 514.1775983 1017.44206563zM176.92206053 151.99064042a10.06098963 10.06098963 0 0 1-6.80846223-17.47626666A509.02053925 509.02053925 0 0 1 719.66936719 43.6256508a10.06098963 10.06098963 0 0 1-8.14345481 18.41076148A488.89856 488.89856 0 0 0 183.66984126 149.33279154a10.03671703 10.03671703 0 0 1-6.74778073 2.65784888z" fill="#050505" p-id="5568"></path><path d="M44.67283978 242.80654563c32.61022815 22.17301333 69.85652148 43.61784889 91.36203852 77.78152295 23.37450667 37.13706667 27.79211852 84.06812445 31.31164445 126.73934222 3.76225185 45.80238222 7.91286518 96.42287408 30.44996742 138.43873185 15.29173333 28.4960237 47.1737837 69.63806815 83.07294813 55.15946668C328.50440126 621.68957969 369.97412571 563.05913228 400.90954496 523.73753228L355.49552424 332.46950265 239.49680424 249.94268784l-100.41571558-19.12680297s-118.77793185-4.58752-94.40824888 11.99066076z" fill="#EAE8B5" p-id="5569"></path><path d="M69.58865608 245.91343747c30.25578667 15.77718518 80.75491555 36.46957037 99.51762963 68.18171259 20.44965925 34.46708148 24.27259259 78.01211259 27.39162074 117.60071111 3.30107259 42.47703703 6.92982518 89.48091259 26.69985185 128.4626963 13.34992592 26.44498963 41.26340741 64.62577778 72.68427853 51.17876148 41.67604148-17.82821925 77.95143111-72.25950815 105.03964443-108.72907853l-39.74637037-177.49333333-101.45943702-76.54362074-87.86678521-17.74326518s-125.62280297 2.92484741-102.26043258 15.0854163z" fill="#EFA69B" p-id="5570"></path><path d="M265.86897608 649.65160635c-12.59747555 0-25.48622222-5.30356148-37.97447112-15.77718518-17.12431408-14.34510222-29.39410963-34.60058075-35.19525925-45.38974815-23.05896297-43.03530667-27.35521185-94.85729185-31.11746371-140.57472-3.20398222-38.94537482-7.18468741-87.27210667-30.44996741-124.25140148-17.80394667-28.28970667-47.1980563-47.79273482-75.62126221-66.65253926-4.66033778-3.09475555-9.46631111-6.28660148-14.1023763-9.44203852-6.50505482-4.42974815-6.18951111-8.99299555-5.42492444-11.31102813 1.85685333-5.63124148 7.48809482-10.75275852 55.52355555-11.63870816 23.84782222-0.43690667 47.57428148 0.46117925 47.80487111 0.47331555h0.43690666l102.07838815 19.41807407 118.75365927 84.48075854 46.57910519 196.09827554-1.72335408 2.18453333c-3.36175408 4.2719763-6.84487111 8.76240592-10.44935111 13.41060743-30.34074075 39.12741925-68.08462222 87.8303763-111.96946963 105.58577776a45.54752 45.54752 0 0 1-17.14858667 3.38602666zM50.23126349 239.60256339c3.85934222 2.6093037 7.82791111 5.2307437 11.67511704 7.79150224 29.44265482 19.52730075 59.88048592 39.73423408 79.00728888 70.1113837 24.77018075 39.35800889 28.87224889 89.25032297 32.17332148 129.33650962 3.64088889 44.71011555 7.84004741 95.25778963 29.79460741 136.18138074 6.06814815 11.40811852 38.55701333 67.57489778 75.83971557 52.53802666 40.99640889-16.54177185 77.6722963-63.87332741 107.17563258-101.94488888 3.00980148-3.88361482 5.94678518-7.65800297 8.78667851-11.28675554l-44.29748147-186.42564743-113.17096296-80.50005333-98.75304296-18.81125924c-3.10689185-0.10922667-22.71914667-0.77672297-43.25376-0.50972446-27.35521185 0.36408889-39.58859852 2.17239703-44.97711408 3.51952592z m-3.54379853-2.56075852z" fill="#050505" p-id="5571"></path><path d="M741.08993017 248.46205969c0 3.55593482-49.18840889 233.23534222-43.69066668 237.96849778s33.84813037 60.37807408 52.4288 66.30058667c33.21704297 10.58285037 72.4294163 27.99843555 103.5226074 3.44670814 10.46148741-8.25268148 25.71681185-14.78200889 34.21221928-25.35272295 9.91535408-12.33047703 21.74824297-29.12711111 26.69985183-44.43098075 24.04200297-74.23772445-40.69300148-131.32686222-58.42413036-193.97442371-14.56355555-51.68848592-12.23338667-131.61813333 10.92266666-181.93521778 2.18453333-4.73315555-1.28644741-20.6317037-12.19697777-15.91068444s-87.38133333 103.00074667-87.38133334 103.00074668z" fill="#EFA69B" p-id="5572"></path><path d="M827.13627089 579.11545228c-20.75306667 0-42.07653925-6.57787259-61.89511111-12.69456593-4.18702222-1.28644741-8.13131852-2.51221333-12.07561482-3.64088888-15.15823408-4.45402075-32.20973037-28.32611555-49.8194963-54.49197038-3.88361482-5.77687703-8.28909037-12.33047703-9.61194666-13.53197037-3.64088889-2.88843852-5.63124148-4.50256592 10.65566817-83.47344592 8.66531555-42.00372148 19.78216297-92.07808 27.13675849-125.21016887 4.02925037-18.20444445 7.5245037-33.89667555 7.97354668-36.48170668v-1.11653926L769.14904719 195.3293545l0.35195259-0.42477036c19.85498075-23.53227852 85.57302518-100.73125925 97.90350222-105.58577779 7.41527703-2.9612563 11.55375408-0.77672297 13.72615111 1.57771852 6.18951111 6.72350815 0.08495408 19.17534815-0.18204445 19.69720889-24.27259259 48.64227555-20.48606815 130.16177778-4.53897479 182.17794371 6.06814815 19.78216297 17.94958222 39.56432592 30.53492147 60.51157333 26.86976 44.73438815 54.61333333 91.02222222 26.27508149 141.19367113-8.49540741 14.93978075-19.69720889 27.8528-30.57133038 40.32891257-9.38135703 10.76489482-19.07825778 21.84533333-31.1174637 30.66842075-13.90819555 10.01244445-28.99361185 13.64119703-44.39457186 13.64119703z m-124.46985481-91.72612741c2.16026075 2.42725925 5.12151703 6.79632592 10.25517037 14.4300563 10.92266667 16.15341037 31.09319111 46.2150163 43.50862221 49.86804148 4.01711408 1.21362963 8.192 2.42725925 12.22125039 3.71370668 33.48404148 10.34012445 68.10889482 21.02006518 96.08305778 0.64322369 10.92266667-7.99781925 20.24334222-18.62921482 29.21206517-28.92079407 10.4978963-12.05134222 21.35988148-24.50318222 29.23633778-38.43565037 25.08572445-44.34602667 0.20631703-85.74293333-26.11730961-129.57923556-12.39115852-20.6317037-25.19495111-41.94304-31.67573334-63.10874074C848.7388783 241.88418709 844.97662645 156.63884193 870.58421164 105.32658117a18.92048592 18.92048592 0 0 0 1.6626726-5.63124148l-0.59467853 0.23058964c-7.28177778 3.45884445-52.96279703 54.47983408-93.01257482 101.94488887l-27.91348148 50.03794964c-0.54613333 2.98552889-2.3058963 11.01975703-7.99781924 36.62734222-11.08043852 50.18358518-40.24395852 181.53472-40.06191409 198.85321481zM739.51221164 249.79705228v0.09709037z" fill="#050505" p-id="5573"></path><path d="M185.87864719 221.83502563a268.21214815 268.21214815 0 0 1 38.21719705 6.06814813c51.38507852 12.1362963 100.42785185 37.88951703 135.28329481 77.57520593 6.43223703 7.28177778 12.88874667 15.46164148 22.13660444 18.56853333 19.30884741 6.48078222 48.54518518-33.84813037 51.70062222-49.75881482 4.28411259-21.2992-11.95425185-81.71368297 0-57.21050073a232.10666667 232.10666667 0 0 1 16.73595259 46.02083555s21.51765333-38.47205925 41.84594964-51.50644148 45.42615703-21.40842667 45.42615702-21.40842667-40.43813925 36.79725037-47.84128 46.63978667c-7.69441185 10.24303408-10.55857778 17.94958222-3.73797925 23.88423111 7.69441185 5.93464889 22.91332741-13.4470163 46.1786074-18.20444445 19.23602963-3.96856889 47.22232889 1.54130963 48.41168594 5.13365334s-29.29701925 3.88361482-46.62765039 13.27710815c-9.56340148 4.66033778-17.93744592 14.22373925-4.78170072 13.02224594s54.98955852-4.78170075 68.1453037 0 42.99889778 21.20210963 49.75881481 23.05896295c11.60229925 3.10689185 64.96559408-79.49274075 73.06050372-89.54159408 38.09583408-47.33155555 67.04090075-68.94629925 105.69500442-97.41805036 10.92266667-8.08277333 35.64430222-24.27259259 49.01850075-17.41558519-25.20708741 38.83614815-49.12772741 72.19882667-78.32765629 127.18838519-30.74123852 57.87799703-37.10065778 120.74401185-44.97711409 185.36978962-1.01944889 8.41045333-1.80830815 20.78947555 1.9782163 28.37466074s11.54161778 8.13131852 18.58066963 3.41029926c8.2041363-5.49774222 6.06814815-29.34556445 13.85965037-35.40157629 2.42725925 10.34012445 13.41060741 32.768 0.43690668 52.12539259 25.29204148-3.73797925 31.22669037 10.99548445 31.28737184 18.41076148-10.83771259-7.63373037-39.21237333-5.37637925-37.45261037 17.54908445 0.32768 4.28411259 4.85451852 14.49073778 16.16554667 17.48840296s44.54020741 9.23572148 68.10889481 21.50551704c21.22638222 12.34261333 60.07466667 42.74403555 60.9727526 48.12041481s-43.03530667 3.14330075-43.03530666 3.14330074 52.90211555 24.21191111 53.3997037 31.83350518-73.07264-3.64088889-73.07264-3.64088888 40.47454815 14.28442075 41.83381334 16.7238163c1.00731259 1.82044445-47.91409778 36.40888889-52.39239112 40.30464-42.47703703 36.50597925-63.80050963 91.39844741-99.44481186 134.19102814-34.62485333 41.56681482-77.93929482 75.82757925-130.31954963 91.60476444q-4.9273363 1.48062815-9.91535407 2.75493927c-68.61861925 17.46413037-148.23272297 6.68709925-202.8460563-40.40173036-12.92515555-11.14112-26.36003555-22.41573925-42.47703702-27.91348149-31.36018963-10.63139555-73.57022815-2.9369837-105.74354963 2.09957925-38.25360592 5.98319408-15.54659555-20.3282963-11.95425186-21.51765333s-47.98691555 16.29904592-50.20785779 11.95425187 54.98955852-51.40935111 54.98955852-51.40935113-100.9375763 16.15341037-105.19741628 10.76489483 63.10874075-107.04213333 104.90614517-149.4342163c42.98676148-43.54503111 76.21594075-63.65487408 64.55296-67.24721779S279.546582 568.5690108 279.546582 568.5690108c6.84487111-11.71152592 18.20444445-20.14625185 25.5711763-29.64897185-9.01726815-7.84004741-20.91083852-12.56106667-32.4524563-15.77718519 5.2550163-7.28177778 16.17768297-6.69923555 24.86727111-4.47829334s18.44717037 5.19433482 26.12944594 0.57040593c-4.75742815-25.12213333-8.93231408-53.31474963 5.50987852-74.41976888 5.31569778-7.76722963 12.85233778-13.95674075 17.3791763-22.22155852 7.53664-13.76256-1.10440297-27.2095763-8.87163261-38.6783763-31.29950815-46.25142518-75.12367408-83.65549037-125.07666962-108.48635259-43.69066667-21.72397037-110.92574815-36.49384297-167.04398223-35.02535111-13.90819555 0.36408889-5.27928889-15.21891555 10.75275853-16.99081481a617.83457185 617.83457185 0 0 1 129.56709925-1.57771851z" fill="#EAE8B5" p-id="5574"></path><path d="M194.3619183 221.83502563a262.39886222 262.39886222 0 0 1 37.78029036 6.06814813c50.8025363 12.1362963 99.28704 37.88951703 133.74198521 77.57520593 6.35941925 7.28177778 12.74311111 15.46164148 21.84533332 18.56853333 19.09039408 6.48078222 47.95050667-33.84813037 51.11808-49.75881482 4.23556741-21.2992-11.82075259-81.71368297 0-57.21050073a233.90283852 233.90283852 0 0 1 16.54177186 46.02083555s21.27492741-38.47205925 41.37263406-51.50644148 44.9042963-21.40842667 44.9042963-21.40842667-39.9648237 36.78511408-47.33155554 46.62765038c-7.60945778 10.24303408-10.43721482 17.94958222-3.64088891 23.8842311 7.60945778 5.93464889 22.64632889-13.4470163 45.65674668-18.20444442 19.0175763-3.96856889 46.68833185 1.54130963 47.8655526 5.13365332s-28.96933925 3.88361482-46.11792594 13.27710814c-9.45417482 4.66033778-17.73112889 14.22373925-4.73315555 13.02224594s54.37060741-4.78170075 67.36858074 0 42.47703703 21.20210963 49.18840889 23.05896295c11.4688 3.10689185 64.2374163-79.49274075 72.23523556-89.54159408 37.62251852-47.33155555 66.28845037-68.94629925 104.49351111-97.41805036 10.84984889-8.08277333 35.19525925-24.27259259 48.4723674-17.41558519-24.9158163 38.83614815-48.54518518 72.19882667-77.44170667 127.18838519-30.34074075 57.87799703-36.67588741 120.74401185-44.46738961 185.36978963-1.00731259 8.41045333-1.79617185 20.78947555 1.9539437 28.37466073s11.42025482 8.13131852 18.37435258 3.41029927c8.11918222-5.49774222 5.98319408-29.34556445 13.70187851-35.4015763 2.42725925 10.34012445 13.26497185 32.768 0.43690668 52.12539259 25.00077037-3.73797925 30.87473778 10.99548445 30.93541925 18.41076149-10.71634963-7.63373037-38.76333037-5.37637925-37.02784 17.54908444 0.32768 4.28411259 4.75742815 14.49073778 15.98350222 17.48840296s44.03048297 9.23572148 67.33217185 21.50551704c20.99579259 12.34261333 59.39503408 42.74403555 60.2809837 48.12041481S882.72050794 579.77081228 882.72050794 579.77081228s52.29530075 24.21191111 52.7443437 31.83350519-72.24737185-3.64088889-72.24737186-3.64088889 40.04977778 14.28442075 41.36049779 16.72381629c0.9951763 1.82044445-34.33358222 11.16539259-59.96544 27.82852741-60.06253037 39.04246518-66.64040297 96.11946667-89.71150223 146.09673481-34.23649185 41.56681482-77.50238815 76.45866667-129.28796445 92.23585186q-4.85451852 1.48062815-9.8061274 2.75493925c-67.8418963 17.46413037-134.31239111-0.74031408-188.30677332-47.8291437-12.77952-11.14112-24.81872592-31.55437037-53.53320298-38.76333036-41.63963259-10.53430518-76.45866667 8.8594963-108.23149036 13.88392295-37.81669925 5.98319408-12.41543111-13.81110518-8.87163259-15.01259851s-47.45291852 16.29904592-49.63745186 11.95425184 54.41915259-57.48963555 54.41915258-57.48963555-73.7158637 6.29873778-77.10189037 2.42725927C180.02895238 757.6403708 235.13987387 675.92668784 276.51250794 633.55887747c42.47703703-43.54503111 77.18684445-64.8927763 61.03343406-80.3058726-8.77454222-8.37404445-50.53553778 15.31600592-50.53553776 15.31600593 6.75991703-11.71152592 18.04667259-20.14625185 25.27990517-29.64897185-8.92017778-7.84004741-20.6317037-12.56106667-32.08836741-15.77718519 5.19433482-7.28177778 15.99563852-6.69923555 24.5881363-4.47829334s23.47159703 2.90057482 31.06891853-1.71121777c-4.69674667-25.12213333-3.72584297-39.9890963 10.55857776-61.09411556 5.2550163-7.76722963 16.43254518-16.40827259 20.91083852-24.67309037 7.45168592-13.76256 6.96623408-35.99625482-5.07297185-52.18607407-33.13208889-44.67370667-83.63121778-86.67742815-133.01380739-111.49615407-43.21735111-21.72397037-118.12257185-28.5202963-173.54903704-27.05180444-13.7504237 0.36408889-5.21860741-15.21891555 10.63139555-16.99081481a603.96278518 603.96278518 0 0 1 128.03792592-1.6262637z" fill="#818A8A" p-id="5575"></path><path d="M549.227222 907.29304042c-54.39488 0-106.14404741-17.34276741-143.69374813-49.75881479-11.10471111-9.57553778-24.9158163-21.48124445-40.59591112-26.80907854-28.09552592-9.52699259-66.27631408-3.48311703-96.96900741 1.38353778l-6.06814815 0.94663112c-16.67527111 2.6093037-26.16585482-0.36408889-28.22902519-8.83522371a14.24801185 14.24801185 0 0 1 0.46117926-7.58518519c-2.53648592 0.76458667-5.17006222 1.55344592-7.75509332 2.28162371-7.28177778 2.08744297-13.26497185 3.64088889-17.69472 4.42974815-5.18219852 0.9951763-12.28193185 2.36657778-14.98832594-2.9369837-2.50007703-4.85451852 1.6384-9.52699259 8.72599705-16.57818075 4.55111111-4.52683852 11.03189333-10.48576 19.27243852-17.7068563 4.32052148-3.78652445 8.68958815-7.5487763 12.65815702-10.92266666-8.92017778 1.3228563-19.83070815 2.87630222-30.7776474 4.30838518-54.78324148 7.14827852-56.95563852 4.39333925-59.46785185 1.21362963-2.94912-3.73797925-2.14812445-8.25268148 8.25268149-26.14158221 6.49291852-11.17752889 15.97136592-25.92312889 26.69985183-41.54254221 25.48622222-37.07638518 51.74916741-70.48760889 70.39051853-89.38382224 17.12431408-17.34276741 32.95004445-31.21455408 44.50379852-41.33622519 7.14827852-6.26232889 14.46646518-12.68242963 18.27726223-16.77236148-8.192 0.18204445-21.77251555 4.55111111-30.34074075 8.27695407a5.76474075 5.76474075 0 0 1-7.28177778-8.20413629c4.47829333-7.67013925 10.4978963-13.7746963 16.31118223-19.6850726 2.07530667-2.11171555 4.08993185-4.15061333 5.93464889-6.17737481-6.5414637-4.46615703-15.01259852-8.11918222-25.71681187-11.1168474a5.76474075 5.76474075 0 0 1-3.11902813-8.93231406c5.74046815-7.94927408 16.73595259-10.31585185 30.97182813-6.68709928l1.67480891 0.43690668c5.78901333 1.49276445 11.72366222 3.03407408 16.49322667 2.11171554-4.70888297-26.04449185-7.28177778-52.81716148 7.28177776-74.0314074a102.98861037 102.98861037 0 0 1 8.07063705-9.93962667 67.62344297 67.62344297 0 0 0 9.01726814-11.78434371c5.60696889-10.24303408-0.29127111-20.42538667-8.59249778-32.67090962-30.34074075-44.84361482-72.87845925-81.67727408-122.8921363-106.54454519-44.28534518-22.00310518-110.31893333-35.85061925-164.32545185-34.41853629-8.98085925 0.23058963-12.56106667-4.85451852-12.86447407-9.25999406-0.61895111-8.81095111 10.04885333-17.81608297 22.81623705-19.27243854a622.592 622.592 0 0 1 130.7321837-1.55344592 272.37489778 272.37489778 0 0 1 39.03032889 6.22592c55.82696297 13.25283555 104.95469037 41.43331555 138.28096 79.37137778l1.71121776 1.96608c5.64337778 6.48078222 10.92266667 12.60961185 17.92530965 14.93978074 3.64088889 1.21362963 8.192-0.67963259 11.34743702-2.50007704 14.86696297-8.59249778 30.76551111-32.48886518 32.86509038-42.9382163 1.85685333-9.24785778-0.76458667-28.15620741-2.66998519-41.96731259-0.75245037-5.41278815-1.39567408-10.08526222-1.71121779-13.61692443-0.36408889-4.02925037-0.91022222-10.10953482 4.44188445-11.73579854 5.67978667-1.73549037 8.62890667 4.30838518 10.78916742 8.72599705A247.58044445 247.58044445 0 0 1 451.88198941 248.7290582c8.24054518-12.82806518 22.54923852-32.86509037 36.73656889-41.96731257 20.6317037-13.27710815 45.66888297-21.67542518 46.72474075-22.02737779a5.76474075 5.76474075 0 0 1 5.70405925 9.70903703c-11.1289837 10.13380741-41.26340741 38.10797037-47.08882964 45.82665482-8.56822518 11.39598222-6.65069037 14.17519408-4.85451849 15.77718518 1.94180741 0.07281778 7.40314075-3.30107259 11.4566637-5.78901333 7.93713778-4.85451852 17.81608297-10.92266667 30.09801479-13.47128889 9.04154075-1.86898963 21.05647408-1.99035259 32.93790817-0.32768 19.95207111 2.77921185 21.46910815 7.28177778 22.11233183 9.28426668a6.39582815 6.39582815 0 0 1-0.58254221 5.31569776c-2.11171555 3.53166222-6.35941925 4.25984-16.62672592 6.06814816-9.78185482 1.67480889-23.18032592 3.98070518-32.13691259 8.8352237l-0.21845335 0.10922668a30.94755555 30.94755555 0 0 0-2.98552888 1.67480887c34.26076445-2.92484741 56.38523259-2.66998518 65.80299853 0.75245037 7.07546075 2.57289482 18.09521778 8.03422815 28.76302221 13.34992593 7.67013925 3.79866075 16.27477333 8.05850075 19.72148149 9.28426667 1.77189925-0.86167703 7.8764563-5.13365333 24.27259259-26.39644445 11.35957333-14.78200889 23.44732445-32.20973037 32.27041185-44.9042963 5.48560592-7.90072889 9.44203852-13.60478815 11.35957333-15.99563852 39.12741925-48.61800297 68.98270815-70.60897185 106.7994074-98.44963555 16.84517925-12.40329482 40.04977778-25.58331259 55.0745126-17.90103702a5.76474075 5.76474075 0 0 1 2.20880593 8.26481776c-5.27928889 8.14345482-10.58285037 16.16554667-15.77718519 23.9327763-19.41807408 29.28488297-39.38228148 59.56494222-62.35629037 102.83083851-28.72661333 54.0793363-35.75352889 112.26074075-43.19307851 173.85244445l-1.21362963 9.5148563c-1.80830815 14.80628148-0.23058963 21.84533333 1.40781036 25.09786074a5.31569778 5.31569778 0 0 0 3.30107259 3.09475556c1.86898963 0.49758815 4.39333925-0.19418075 6.91768889-1.89326223 2.19666963-1.46849185 3.71370667-9.15076741 4.70888297-14.23587555 1.61412741-8.1798637 3.2889363-16.63886222 8.81095112-20.93511112a5.76474075 5.76474075 0 0 1 9.15076739 3.24039112c0.36408889 1.56558222 0.9951763 3.64088889 1.73549038 5.92251259 3.15543703 10.03671703 8.05850075 25.69253925 2.65784889 41.17845333 7.76722963 0.30340741 14.12664889 2.56075852 19.0175763 6.73564445a24.38181925 24.38181925 0 0 1 8.49540741 17.96171851 5.76474075 5.76474075 0 0 1-9.09008594 4.75742815c-4.79383703-3.37389037-15.31600592-4.22343111-22.22155852-0.30340741-4.5996563 2.6093037-6.61428148 6.75991703-6.15310221 12.68242963a16.26263703 16.26263703 0 0 0 11.88143407 12.35474963c1.99035259 0.52186075 4.79383703 1.21362963 8.03422814 1.94180741 15.46164148 3.64088889 41.34836148 9.70903703 61.26402371 20.02488889l0.23058962 0.13349928c10.15808 5.89824 25.01290667 16.28690963 38.83614815 27.12462221 23.94491259 18.83553185 24.62454518 22.86478222 24.97649779 25.03717925a6.78418963 6.78418963 0 0 1-1.6626726 5.65551408c-1.12867555 1.21362963-3.64088889 4.06565925-21.21424592 4.63606518l3.34961777 1.74762668c27.1853037 14.33296592 29.66110815 19.30884741 29.90383408 23.53227851a7.00264297 7.00264297 0 0 1-2.3180326 5.5826963c-2.05103408 1.86898963-5.03656297 4.5996563-32.65877333 2.2694874a6.66282667 6.66282667 0 0 1 3.02193779 2.80348445c2.56075852 4.58752-1.44421925 7.96141037-4.67247407 10.66780443-2.17239703 1.82044445-5.2550163 4.25984-9.42990223 7.43954964-7.5245037 5.72833185-17.22140445 12.84020148-25.01290668 18.55639703-6.83273482 5.01229037-13.28924445 9.70903703-14.56355555 10.8255763-24.73377185 21.27492741-42.65908148 49.84376889-60.00184888 77.46597926-11.90570667 18.96903111-24.21191111 38.56914963-38.77546666 56.0454163-39.35800889 47.25873778-84.14094222 78.69174518-133.08662521 93.44948147-3.33748148 1.00731259-6.75991703 1.9539437-10.15808 2.81562075a261.22164148 261.22164148 0 0 1-64.34664296 7.99781925z m-220.35873183-93.10966517c13.96887703 0 27.57366518 1.50490075 39.77064294 5.64337777 17.81608297 6.06814815 32.57381925 18.76271408 44.43098076 28.99361185 49.43113482 42.62267259 125.1616237 57.64740741 197.65172147 39.18810076 3.24039111-0.82526815 6.49291852-1.72335408 9.70903704-2.68212149 46.74901333-14.0781037 89.66295703-44.28534518 127.55247407-89.8085926 14.06596741-16.88158815 26.16585482-36.15402667 37.86524444-54.80751407 17.79181037-28.35038815 36.19043555-57.6595437 62.2470637-80.09955554 1.52917333-1.31072 6.52932741-5.00015408 15.25532446-11.38384594s23.14391703-16.99081482 30.94755554-23.14391704c-7.79150222-3.24039111-21.37201778-8.31336297-33.81172148-12.69456593a5.76474075 5.76474075 0 0 1 2.79134815-11.14112c22.37933037 3.41029925 48.1810963 6.20164741 61.06984298 6.22592-9.33281185-6.22592-27.98629925-15.91068445-44.61302519-23.52014222a5.76474075 5.76474075 0 0 1 2.69425778-11.00762074 285.46996148 285.46996148 0 0 0 33.19277036 0c-10.25517037-9.70903703-36.32393482-29.98878815-54.20069925-40.40173037-18.61707852-9.70903703-43.54503111-15.48591408-58.44840298-18.95689482-3.32534518-0.77672297-6.20164741-1.44421925-8.34977185-2.01462518-13.16788148-3.47098075-19.87925333-15.31600592-20.44965924-22.6220563-0.80099555-10.38866963 3.44670815-18.76271408 11.95425184-23.6050963a35.62002963 35.62002963 0 0 1 20.74093037-3.87147851c-4.23556741-3.41029925-11.11684741-4.52683852-19.95207112-3.22825482a5.76474075 5.76474075 0 0 1-5.63124147-8.92017777c6.80846222-10.15808 5.8861037-21.38415408 3.49525334-31.17814519l-0.16990817 0.88594962c-1.68694518 8.58036148-3.44670815 17.45199408-9.61194666 21.57833483-5.36424297 3.64088889-11.1532563 4.85451852-16.28690962 3.47098074a16.61458963 16.61458963 0 0 1-10.66780444-9.07794964c-3.45884445-6.91768889-4.29624889-17.26994963-2.54862223-31.65146072l1.15294816-9.50272C754.19713017 332.20250414 761.35754496 273.0016508 791.07933459 217.00477969c23.22887111-43.69066667 43.41153185-74.26199703 62.9266963-103.77746963 3.56807111-5.38851555 7.2210963-10.92266667 10.92266668-16.50536297-8.60463408 0.88594963-21.50551703 7.1968237-35.98411852 17.85249186-37.11279408 27.34307555-66.43408592 48.94568297-104.62701039 96.38646519-1.66267259 2.06317037-5.72833185 7.92500148-10.92266666 15.34027851-40.04977778 57.72022518-56.00900741 76.45866667-66.13067851 76.45866668a7.81577482 7.81577482 0 0 1-2.03889778-0.26699853c-3.64088889-0.9709037-10.92266667-4.56324741-22.64632888-10.35226074-9.90321778-4.85451852-21.11715555-10.46148741-27.58580149-12.81592889-3.73797925-1.35926518-17.59762963-4.04138667-65.64522668 0.32768-8.98085925 0.81313185-11.91784297-2.79134815-12.79165628-5.95892148-2.09957925-7.5487763 8.02209185-14.79414518 14.41792-17.93744593 7.76722963-4.18702222 17.57335703-6.62641778 26.39644445-8.34977183-7.79150222-0.76458667-16.74808889-0.84954075-24.38181926 0.72817776-10.30371555 2.12385185-19.22389333 7.60945778-26.39644446 12.00279703-8.93231408 5.47346963-17.36704 10.65566815-24.46677333 5.17006223l-0.26699852-0.21845332c-12.63388445-11.00762075-1.33499259-26.03235555 2.91271112-31.70000594 3.64088889-4.76956445 14.15092148-15.19464297 24.51531851-25.06145185a165.05362963 165.05362963 0 0 0-14.4057837 8.16772741c-18.89621333 12.1362963-39.70996148 49.10345482-39.92841481 49.4675437a5.76474075 5.76474075 0 0 1-10.66780444-1.56558223 199.99402667 199.99402667 0 0 0-6.06814816-20.3282963c1.38353778 11.71152592 2.23307852 23.54441482 0.65536 31.39659853-2.6093037 12.96156445-19.87925333 39.94055111-38.39924148 50.64476444-7.57304889 4.38120297-14.56355555 5.53415111-20.78947555 3.44670815-9.91535408-3.33748148-16.84517925-11.28675555-22.9497363-18.30153482l-1.67480888-1.91753479c-31.76068741-36.15402667-78.74029037-63.10874075-132.28562963-75.76689779a261.16096 261.16096 0 0 0-37.39192889-5.97105779 611.73001482 611.73001482 0 0 0-128.40201481 1.52917334 18.20444445 18.20444445 0 0 0-11.56589037 5.53415111C101.14302645 233.18246265 169.36114794 247.51542858 215.22421164 270.27098414c51.7855763 25.74108445 95.81605925 63.92187259 127.30974814 110.44029628 7.40314075 10.92266667 18.59280592 27.44016592 9.15076741 44.68584297a77.28393482 77.28393482 0 0 1-10.53430519 13.87178667 93.0489837 93.0489837 0 0 0-7.1968237 8.82308741c-12.92515555 18.88407703-9.35708445 44.97711408-4.61179259 70.0992474a5.76474075 5.76474075 0 0 1-2.69425777 6.06814815c-9.27213037 5.57056-20.14625185 2.75493925-28.88438519 0.49758815l-1.6384-0.42477037a44.54020741 44.54020741 0 0 0-5.93464888-1.10440296 71.60414815 71.60414815 0 0 1 18.73844147 11.43239111 5.76474075 5.76474075 0 0 1 0.78885925 7.86432 131.3875437 131.3875437 0 0 1-10.59498665 11.63870814l-2.42725928 2.42725926c8.07063703-2.12385185 16.90586075-3.42243555 23.05896298-1.51703702 4.5753837 1.40781037 5.87396741 4.52683852 6.2501926 6.26232887 1.49276445 7.00264297-5.5826963 13.20429037-24.50318224 29.78247113-11.42025482 10.01244445-27.06394075 23.71432297-43.8969837 40.76581925-38.14437925 38.64196741-92.13876148 119.6153363-101.94488889 140.78103705 14.56355555 0 58.02363259-5.5826963 97.21173334-11.84502521a5.76474075 5.76474075 0 0 1 4.5753837 10.14594372c-17.29422222 14.23587555-35.78993778 30.34074075-45.8509274 40.04977779 11.09257482-2.69425778 27.36734815-7.73082075 35.40157629-10.48576l0.18204444-0.06068151a5.76474075 5.76474075 0 0 1 4.36906667 10.67994075l-0.16990815 0.06068148c-2.34230518 1.72335408-6.88128 8.13131852-6.5657363 10.27944298 0.47331555 0.3398163 3.64088889 2.08744297 15.25532445 0.26699851l6.00746666-0.94663112c19.36952889-3.11902815 41.50613333-6.62641778 62.79319706-6.62641777z m-77.83006817-2.88843853l0.19418075-0.07281777z m0.60681483-0.27913479zM646.97295238 291.20609525z" fill="#020202" p-id="5576"></path><path d="M348.40792719 692.57768635c-0.84954075 1.3228563 16.62672592 21.84533333 17.88890075 23.55655112 22.05165037 29.36983703 42.40421925 59.94116741 63.29078517 90.13627259 38.83614815 56.19105185 81.16754963 112.64910222 157.12862815 107.7945837 55.99687111-3.64088889 83.95889778-37.10065778 84.86912-41.59108741 2.79134815-13.76256 28.86011259-30.95969185 37.0157037-42.04013036 12.94942815-17.62190222 24.55172741-36.32393482 33.21704298-56.44591406 10.78916741-25.04931555 16.83304297-51.82198518 20.6317037-78.74029039 3.47098075-24.576 8.05850075-51.7855763 6.67496295-76.60430221-1.79617185-32.1247763-7.17255111-26.48139852-7.1725511-26.48139853L362.07339683 671.49693969z" fill="#FCFCFC" p-id="5577"></path><path d="M577.63829164 920.12110563c-31.91845925 0-60.48730075-10.71634963-87.07792593-32.61022816-25.35272297-20.87442963-45.54752-48.78791111-65.71804445-77.96356741q-7.41527703-10.72848592-14.78200888-21.50551704c-15.54659555-22.68273778-31.61505185-46.11792592-48.37527704-68.44871109-0.25486222-0.3398163-1.11653925-1.37140148-2.30589629-2.81562076-2.64571259-3.19184592-6.62641778-8.03422815-9.97603556-12.31834075-5.65551408-7.28177778-8.49540741-10.92266667-5.82542223-15.02473479L357.2188783 668.36577525a5.76474075 5.76474075 0 0 1 3.71370666-2.52434962l398.90792298-79.15292446a6.96623408 6.96623408 0 0 1 5.50987851-0.24272592c4.85451852 1.79617185 8.1798637 7.75509333 9.5269926 31.86991408 1.21362963 22.53710222-2.17239703 46.23928889-5.48560594 69.17688887q-0.63108741 4.33265778-1.21362962 8.56822519c-4.42974815 31.38446222-11.32316445 57.62313482-21.05647408 80.22091854-8.05850075 18.71416889-19.13893925 37.54970075-33.87240296 57.58672591-3.31320889 4.51470222-8.90804148 9.58767408-14.84269037 14.95191703-8.81095111 7.98568297-19.78216297 17.92530963-21.17783703 24.81872593-1.69908148 8.39831703-33.67822222 42.5862637-90.16054518 46.20288q-4.76956445 0.27913482-9.42990223 0.27913483zM355.08289017 692.91750265c2.09957925 2.94912 6.51719111 8.49540741 13.18001777 16.56604444 1.60199111 1.92967111 2.31803259 2.80348445 2.64571259 3.24039111 16.90586075 22.51282963 33.04713482 46.11792592 48.66654813 68.86134519q7.36673185 10.74062222 14.7577363 21.46910815c41.67604148 60.2809837 81.89572741 109.7849363 152.00711112 105.31877926 51.22730667-3.2768 77.23538963-32.65877333 79.67478518-37.40406517 2.35444148-10.46148741 13.68974222-20.72879408 24.63668149-30.65628446 5.48560592-4.97588148 10.66780445-9.70903703 13.34992591-13.24069924 14.21160297-19.3209837 24.85513482-37.40406518 32.57381928-55.30510224 9.32067555-21.6390163 15.93495703-46.91892148 20.23120593-77.27179852q0.60681482-4.25984 1.21362962-8.60463408c3.24039111-22.35505778 6.57787259-45.48683852 5.38851556-66.87099259-0.67963259-12.26979555-1.85685333-18.05880889-2.65784888-20.6317037l-395.16994372 78.2912474z m310.84695702 178.40355555z m0.16990815-0.57040592zM353.25030941 695.6967145z m-4.85451852-3.13116444z m417.71918222-96.44714667z" fill="#070707" p-id="5578"></path><path d="M504.335062 872.21914414s40.04977778 69.33466075 93.84997926 60.36593779 74.71104-47.21019259 83.07294815-96.82337187" fill="#FCFCFC" p-id="5579"></path><path d="M588.40318645 939.1750908c-51.4336237 0-87.45415111-61.2882963-89.06827851-64.06750815a5.76474075 5.76474075 0 1 1 9.98817184-5.76474072c0.48545185 0.82526815 38.83614815 65.76658963 87.90319409 57.56245332 44.69797925-7.45168592 68.86134518-35.85061925 78.35192888-92.1023526a5.76474075 5.76474075 0 0 1 11.37170963 1.91753482c-6.48078222 38.39924148-22.6220563 90.69454222-87.8303763 101.5686637a65.11122963 65.11122963 0 0 1-10.71634963 0.88594963z" fill="#070707" p-id="5580"></path><path d="M406.56505905 707.54173969c2.62144-1.71121778 22.14874075 16.27477333 24.84299852 18.82339556A136.71537778 136.71537778 0 0 1 453.09561905 752.90721525c11.50520889 18.28939852 19.0175763 38.77546667 30.20724148 57.35613629 19.84284445 32.95004445 50.97244445 79.90537482 94.52961185 79.29856 37.12493037-0.52186075 66.65253925-24.09054815 83.43703703-55.94832591 7.94927408-15.0854163 11.42025482-29.68538075 13.67760593-46.53056l9.57553777-71.47064891c2.42725925-17.92530963 3.19184592-38.92110222 10.76489483-55.58423703 8.96872297-19.72148148-199.03525925 5.37637925-199.03525928 5.37637926s-51.1302163 17.0272237-89.68722961 42.13722074z" fill="#020202" p-id="5581"></path><path d="M576.95865905 896.80728042c-44.04261925 0-75.24503703-41.82167703-99.88171852-82.81808592-5.50987852-9.13863111-10.1459437-18.72630518-14.63637334-27.99843555-4.97588148-10.27944297-9.70903703-20.0006163-15.49805036-29.23633778A129.61564445 129.61564445 0 0 0 426.39576719 731.63228784c-6.06814815-5.77687703-16.48109037-14.69705482-20.26761481-16.84517926a7.28177778 7.28177778 0 0 1-3.54379851-13.34992593c38.83614815-25.31631408 89.18964148-42.22217482 91.31349332-42.9382163a7.28177778 7.28177778 0 0 1 1.41994668-0.3155437c0.47331555 0 47.71991703-5.74046815 95.6704237-9.53912889 28.26543408-2.24521482 51.27585185-3.39816297 68.40016592-3.44670813 29.63683555 0 37.86524445 2.97339259 41.49399704 7.93713776a9.70903703 9.70903703 0 0 1 0.94663111 9.87894519c-5.48560592 12.1362963-7.16041482 27.12462222-8.77454223 41.66390518-0.43690667 3.93216-0.88594963 8.00995555-1.40781036 11.88143408l-9.57553779 71.47064888c-1.91753482 14.28442075-5.12151703 31.26309925-14.45432888 48.95781927-19.41807408 36.94288592-53.02347852 59.31008-89.8085926 59.81980443zM420.66743534 707.37183154q1.41994667 1.14081185 2.93698371 2.42725926c5.57056 4.62392889 11.1289837 9.70903703 12.80379259 11.32316445a144.1792 144.1792 0 0 1 22.82837332 27.91348147 314.19657482 314.19657482 0 0 1 16.27477334 30.63201186c4.34479408 8.98085925 8.84736 18.26512592 14.00528594 26.84548741 22.58564741 37.51329185 50.63262815 75.73048889 87.4662874 75.73048888h0.74031407c31.7970963-0.43690667 59.91689482-19.41807408 77.11402667-52.0768474 6.66282667-12.64602075 10.40080592-25.42554075 12.90088296-44.11543705l9.57553777-71.47064888c0.49758815-3.71370667 0.92235852-7.5245037 1.37140148-11.55375407 1.49276445-13.4227437 3.15543703-28.47175111 8.15559112-41.67604148-7.20896-1.60199111-29.68538075-3.58020741-98.66808888 2.03889777-42.95035259 3.49525333-84.31085037 8.34977185-90.33045334 9.06581333-5.5584237 1.96608-44.01834667 15.48591408-77.17470815 34.91612445z m-10.18235259 6.28660148z m0 0z" fill="#070707" p-id="5582"></path><path d="M485.05048719 800.49363302s29.89169778-35.0496237 59.77125926-29.47906369 40.6444563 22.90119111 40.6444563 22.90119109 11.35957333-11.66298075 25.70467555-11.21393777 29.28488297 12.99797333 37.06424889 29.73392593 7.76722963 25.2192237 7.76722964 25.2192237-31.23882667 41.65176889-56.96777483 46.91892148c-34.58844445 7.07546075-59.37076148-10.72848592-69.88079406-18.50785183s-21.44483555-25.38913185-28.42320594-35.70498373-15.68009482-29.86742518-15.68009481-29.86742518z" fill="#F94C53" p-id="5583"></path><path d="M396.73465905 398.60018117a5.77687703 5.77687703 0 0 1-5.35210667-7.91286518c2.79134815-6.96623408 8.49540741-13.14360889 13.58051556-18.60494223 1.09226667-1.21362963 2.16026075-2.33016889 3.14330072-3.42243556a238.08986075 238.08986075 0 0 1 21.23851853-21.03220148c5.60696889-4.85451852 11.49307259-9.55126518 17.51267556-13.88392296a100.18512592 100.18512592 0 0 0-45.14702222 18.41076149c-1.72335408 1.27431111-3.73797925 2.92484741-4.08993187 4.38120295a5.76474075 5.76474075 0 1 1-11.21393777-2.73066666c1.21362963-5.01229037 4.93947259-8.33763555 8.42258964-10.92266667a110.33106963 110.33106963 0 0 1 71.22792296-21.54192592 5.76474075 5.76474075 0 0 1 2.2573511 10.92266668 45.92374518 45.92374518 0 0 0-8.4954074 6.00746665c-1.71121778 1.40781037-3.48311703 2.86416592-5.41278814 4.23556741-6.06814815 4.28411259-11.89357037 8.92017778-17.47626667 13.78683259A226.58465185 226.58465185 0 0 0 416.68673017 376.33007747c-1.03158518 1.21362963-2.14812445 2.35444148-3.3010726 3.64088888-4.38120297 4.72101925-9.34494815 10.06098963-11.33530074 15.03687112a5.76474075 5.76474075 0 0 1-5.31569778 3.5923437zM697.29003683 356.25664339a5.74046815 5.74046815 0 0 1-3.84720594-1.46849185c-9.33281185-8.34977185-18.98116741-16.99081482-30.43783111-21.43269926a71.60414815 71.60414815 0 0 0-21.57833482-4.23556741c-2.77921185-0.18204445-5.71619555-0.10922667-8.8352237 0a76.22807703 76.22807703 0 0 1-14.83055407-0.61895111 5.76474075 5.76474075 0 0 1-3.64088889-9.18717629c3.9442963-5.14578963 10.92266667-9.70903703 20.6317037-13.4591526a65.536 65.536 0 0 1 22.67060149-4.40547554c15.10968889-0.24272592 29.45479111 4.41761185 38.94537481 7.93713776a5.76474075 5.76474075 0 0 1-4.01711406 10.81344c-8.61677037-3.20398222-21.60260741-7.43954963-34.73408-7.22109629a54.0793363 54.0793363 0 0 0-18.6898963 3.64088889q-1.21362963 0.44904297-2.20880594 0.89808594c1.78403555 0 3.64088889 0 5.37637926 0.13349924a82.63604148 82.63604148 0 0 1 25.00077038 4.98801778c13.34992592 5.20647111 24.27259259 14.96405333 33.98162962 23.5808237a5.76474075 5.76474075 0 0 1-3.84720592 10.06098964z" fill="#070707" p-id="5584"></path><path d="M468.47230645 437.06010414s-1.21362963-62.75678815 19.72148149-66.34913186 23.9085037 22.11233185 23.9085037 22.11233186 7.76722963-49.61317925 30.4863763-49.61317927 38.25360592 43.69066667 38.25360593 43.69066667 4.18702222-18.30153482 19.72148147-18.71416889 30.4863763 40.23182222 30.4863763 40.23182222l45.72956444 189.48399408-192.77293037 23.20459852z" fill="#C3C7C0" p-id="5585"></path><path d="M431.69932866 569.2122345c-12.96156445-25.77749333-26.32362667-51.50644148-29.81888-80.37869036a120.14933333 120.14933333 0 0 1 5.53415112-54.4191526c5.93464889-16.71168 16.76022518-41.49399703 38.56914963-37.46474667 9.53912889 1.75976297 17.63403852 8.00995555 24.53959112 14.83055408 18.20444445 17.94958222 30.86260148 41.05709037 38.13224296 65.536s8.14345482 48.88500148 8.03422815 74.14063407c0 2.81562075-0.16990815 46.38492445-1.41994668 46.38492445h-69.91720296c-4.16274963-9.64835555-8.87163259-19.13893925-13.65333334-28.62952297z" fill="#FFF274" p-id="5586"></path><path d="M515.28200126 603.6186345h-73.728l-1.50490073-3.48311703c-4.07779555-9.4905837-8.71386075-18.82339555-13.49556148-28.32611554L425.18213757 569.12728042c-12.54893037-24.92795259-25.48622222-50.70544592-29.03002074-79.55342222a125.98689185 125.98689185 0 0 1 5.82542222-57.04059257c4.07779555-11.49307259 16.50536297-46.48201482 45.04993184-41.26340743 12.06347852 2.22094222 21.49338075 10.42507852 27.5493926 16.3961363 17.96171852 17.73112889 31.65146075 41.26340741 39.6128711 67.96325926 7.82791111 26.34789925 8.37404445 52.95066075 8.27695407 75.81544296v0.25486223c0 8.92017778-0.13349925 17.74326518-0.25486221 24.84299852-0.10922667 6.33514667-0.25486222 11.35957333-0.42477037 14.96405333-0.10922667 2.22094222-0.21845333 3.89575111-0.35195259 5.10938074-0.6432237 6.10455703-4.12634075 7.00264297-6.15310223 7.00264296z m-66.16708739-11.52948148h61.09411554c0.3398163-6.37155555 0.63108741-19.74575408 0.72817778-40.37745777v-0.25486223c0.09709037-22.03951408-0.41263408-47.62282667-7.79150223-72.47796148s-20.07343408-46.72474075-36.66375109-63.10874074c-7.90072889-7.79150222-14.7456-12.01493333-21.54192593-13.26497185-13.05865482-2.42725925-22.9497363 7.98568297-32.08836741 33.7267674a114.39672889 114.39672889 0 0 0-5.24288 51.7855763c3.2646637 26.8576237 15.77718518 51.71275852 27.91348147 75.75476149l1.37140149 2.71853036c4.2477037 8.60463408 8.42258963 16.93013333 12.22125038 25.49835852z" fill="#020202" p-id="5587"></path><path d="M477.64734645 597.58689525h0.14563555c-4.39333925-0.40049778-12.92515555-15.12182518-15.24318813-18.62921483a120.07651555 120.07651555 0 0 1-12.1362963-23.83568592c-6.35941925-16.93013333-8.79881482-34.50349037-5.67978668-52.36811851 1.11653925-6.37155555 2.92484741-12.77952 6.72350816-18.0224 7.40314075-10.21876148 19.41807408-10.86198518 29.8067437-4.63606519 12.86447408 7.76722963 22.81623703 21.78465185 27.03966814 36.21470815 5.86183111 20.02488889-0.30340741 79.18933333-0.3034074 79.18933333-8.49540741 2.91271111 5.30356148 2.07530667-3.15543704 5.00015407-4.58752 1.57771852-10.32798815 4.76956445-15.15823407 5.23074371-6.59000889 0.61895111-9.8304-4.06565925-15.63154963-8.49540741z" fill="#6A9636" p-id="5588"></path><path d="M471.08937617 557.82536906a38.58128592 17.22140445 74.26 1 0 33.15129336-9.34338619 38.58128592 17.22140445 74.26 1 0-33.15129336 9.34338619Z" fill="#020202" p-id="5589"></path><path d="M651.4755183 573.98179895c-2.65784889 0.38836148-13.34992592-17.45199408-14.56355555-19.41807408-21.09288297-31.15387259-33.98162963-68.29093925-32.18545779-106.20472888 1.09226667-22.88905482 8.34977185-77.49025185 38.90896593-80.23305482 5.2550163-0.47331555 10.46148741 1.75976297 14.56355556 5.02442667 20.88656592 16.44468148 29.40624592 43.69066667 34.77048889 68.69143703 8.79881482 40.92359111 6.06814815 86.41042963-5.12151704 126.75147852z" fill="#FFF274" p-id="5590"></path><path d="M651.19638349 579.81935747c-4.36906667 0-8.03422815-4.2719763-18.01026371-20.20693333-0.53399703-0.84954075-0.91022222-1.46849185-1.10440295-1.73549038-23.47159703-34.66126222-34.94039703-72.59932445-33.16849778-109.71211851 0.65536-13.70187852 5.86183111-82.2598163 44.15184591-85.70652445 6.2380563-0.55826963 12.86447408 1.6505363 18.6898963 6.23805629 22.79196445 17.94958222 31.66359703 47.91409778 36.83365927 72.00464593 8.65317925 40.25609482 6.79632592 86.25265778-5.20647112 129.50641778l-1.00731258 3.64088889-3.71370666 0.54613333-35.86275558 5.27928891-0.49758814 0.07281776a7.71868445 7.71868445 0 0 1-1.10440296 0.07281778z m0-11.55375408h-0.53399704z m-6.14096592-194.35064889h-0.92235852c-23.85995852 2.14812445-32.39177482 48.01118815-33.66608594 74.77172149-1.6262637 34.10299259 9.45417482 70.57256297 31.20241778 102.68520296 0.21845333 0.32768 0.67963259 1.06799408 1.3228563 2.07530668 5.67978667 9.05367703 8.49540741 12.90088297 9.92749038 14.56355554 3.64088889-0.55826963 11.85716148-1.75976297 30.34074073-4.49042963 10.63139555-40.42600297 12.1362963-83.03653925 4.06565927-120.39205926-5.06083555-23.5808237-12.91301925-49.75881482-32.69518223-65.36609186-1.89326222-1.49276445-5.53415111-3.84720592-9.59981038-3.84720592z" fill="#020202" p-id="5591"></path><path d="M632.71280424 537.57291006s-14.45432889-89.74791111 10.04885333-92.73344c19.9763437-2.42725925 29.97665185 31.31164445 34.21221926 45.85092741 7.8764563 26.99112297 5.24288 53.71524741 1.65053628 81.09473186L651.4755183 573.98179895z" fill="#6A9636" p-id="5592"></path><path d="M637.45326219 523.03795611a38.84828445 19.43021037 85.01 1 0 38.71313587-3.38015148 38.84828445 19.43021037 85.01 1 0-38.71313587 3.38015148Z" fill="#020202" p-id="5593"></path><path d="M728.4803183 524.93902563s-50.20785778 59.77125925-14.34510222 86.07061332 89.69936592-23.9085037 89.69936592-23.9085037" fill="#818A8A" p-id="5594"></path><path d="M738.15294645 624.45665525a45.28052148 45.28052148 0 0 1-27.42802962-8.79881483A35.71712 35.71712 0 0 1 695.82154496 590.28084487c-3.64088889-30.58346667 26.99112297-67.50208 28.30184298-69.05552592a5.76474075 5.76474075 0 0 1 8.8352237 7.41527704c-0.29127111 0.3398163-28.77515852 34.66126222-25.68040298 60.2809837a24.27259259 24.27259259 0 0 0 10.32798817 17.43985778c31.63932445 23.21673482 81.81077333-23.05896297 82.32049776-23.47159705a5.76474075 5.76474075 0 1 1 7.86432 8.43472593c-1.88112592 1.69908148-36.0569363 33.11995259-69.63806814 33.1320889z" fill="#020202" p-id="5595"></path><path d="M434.39358645 628.34027006c0 3.64088889 6.16523852 10.61925925 8.04636444 13.48342519 17.47626667 26.69985185 40.72941037 51.17876148 73.0847763 58.01149629 31.72427852 6.68709925 65.45104592-4.05352297 87.01724445-28.32611555 4.98801778-5.61910518 27.35521185 4.01711408 33.31413332 5.48560594a85.06330075 85.06330075 0 0 0 43.21735112-0.65536c28.41106963-8.02209185 49.1398637-30.18296889 57.86586075-58.0114963 4.47829333-14.28442075 1.9782163-29.73392592-10.69207705-38.70264891-6.83273482-4.85451852-15.03687111-7.37886815-23.26528-8.87163258-18.47144297-3.36175408-33.88453925-2.91271111-51.51857778 3.47098073-16.01991111 5.80114963-27.59793778 27.08821333-49.56463406 27.5372563-25.92312889 0.53399703-47.64709925-23.37450667-74.4076326-18.82339554-20.87442963 3.55593482-41.84594963 10.92266667-60.99702517 19.95207109-3.98070518 1.86898963-32.11264 15.21891555-32.11264 18.89621334z" fill="#F9F9F9" p-id="5596"></path><path d="M534.53016719 706.42520042a96.71414518 96.71414518 0 0 1-19.96420741-2.08744295c-28.66593185-6.06814815-53.52106667-25.66826667-75.9974874-59.9897126-0.37622518-0.57040592-1.08013037-1.50490075-1.82044444-2.42725924-3.95643259-5.21860741-6.97837037-9.53912889-6.97837037-13.53197038v-6.5778726c0-2.85202963 0-6.77205333 34.77048888-23.05896296 21.6390163-10.1459437 42.56199111-16.99081482 62.18638221-20.3282963 15.77718518-2.69425778 29.61256297 3.49525333 42.96248891 9.47844741 10.92266667 4.85451852 21.23851852 9.47844741 32.1247763 9.27213037 11.68725333-0.24272592 20.06129778-7.28177778 28.92079407-14.56355554 5.94678518-4.95160889 12.1362963-10.08526222 19.16321184-12.64602076 17.36704-6.28660148 33.49617778-7.39100445 53.92156446-3.64088888 10.38866963 1.88112592 18.59280592 5.03656297 25.09786072 9.64835555 13.21642667 9.35708445 17.98599111 26.15371852 12.42756742 43.86057481-9.45417482 30.12228741-32.25827555 52.95066075-61.02129779 61.08197928a89.38382222 89.38382222 0 0 1-45.58392888 0.70390517c-1.48062815-0.36408889-3.58020741-1.08013037-6.22592-1.9782163-12.88874667-4.38120297-20.48606815-6.06814815-22.60992-4.85451851a95.60974222 95.60974222 0 0 1-71.37355852 31.63932443z m-95.52478814-78.15774814c0.27913482 1.6505363 3.64088889 6.06814815 5.10938073 8.02209186 0.87381333 1.21362963 1.6384 2.16026075 2.18453333 2.99766519 21.06861037 32.17332148 44.01834667 50.49912889 70.17206519 56.02114369a86.68956445 86.68956445 0 0 0 82.61176889-26.8818963c5.49774222-6.18951111 17.92530963-2.62144 32.4160474 2.31803261 2.34230518 0.80099555 4.36906667 1.48062815 5.46133335 1.75976295a80.09955555 80.09955555 0 0 0 40.86290963-0.61895111c26.12944592-7.37886815 46.11792592-27.41589333 54.72256-54.95314963 4.38120297-13.94460445 1.03158518-26.49353482-8.95658668-33.55685926-5.38851555-3.81079703-12.39115852-6.45650963-21.42056295-8.09490963-18.95689482-3.44670815-33.18063408-2.50007703-49.11559111 3.2768-5.54628741 2.00248889-10.81344 6.40796445-16.384 11.05616593-9.24785778 7.71868445-19.72148148 16.45681778-34.64912594 16.76022518h-0.94663111c-12.62174815 0-24.06627555-5.13365333-35.19525925-10.09739851-12.65815703-5.66765037-24.61240889-11.01975703-37.62251853-8.81095111-18.79912297 3.20398222-38.92110222 9.79399111-59.80766813 19.58798221-13.95674075 6.5414637-26.33576297 13.34992592-29.45479112 16.04418371z" fill="#020202" p-id="5597"></path><path d="M385.387222 561.9911382S488.19378794 570.34091006 478.58184126 608.61878858s-64.55296 70.53615408-139.87081481 86.07061335" fill="#818A8A" p-id="5598"></path><path d="M338.74743534 700.45414265a5.76474075 5.76474075 0 0 1-1.21362963-11.42025481c74.78385778-15.42523259 126.67866075-46.78542222 135.44106667-81.82290964a12.99797333 12.99797333 0 0 0-2.28162372-11.43239111c-13.14360889-18.32580741-66.42194963-26.45712592-85.8400237-28.04698074a5.76474075 5.76474075 0 0 1 0.93449482-11.49307259c7.69441185 0.63108741 75.65767111 6.8691437 94.27474963 32.768a24.39395555 24.39395555 0 0 1 4.10206816 20.95938371c-5.01229037 20.06129778-21.56619852 39.10314667-47.87768891 55.08664888-25.02504297 15.20677925-58.37558518 27.39162075-96.42287407 35.19525928a5.82542222 5.82542222 0 0 1-1.11653925 0.20631702z" fill="#020202" p-id="5599"></path><path d="M559.45146302 596.10697464a24.07841185 45.48683852 85.01 1 0 90.62887758-7.91306057 24.07841185 45.48683852 85.01 1 0-90.62887758 7.91306057Z" fill="#070707" p-id="5600"></path><path d="M602.54197164 678.75444487a7.28177778 7.28177778 0 0 1-5.02442668-12.47611259 20.47393185 20.47393185 0 0 0 6.06814815-15.55873186 7.28177778 7.28177778 0 0 1 14.41792-1.72335407 35.19525925 35.19525925 0 0 1-10.35226073 27.71930074 7.28177778 7.28177778 0 0 1-5.10938074 2.03889778zM233.55001905 662.66171599a2.6335763 2.6335763 0 0 1-0.78885927-5.15792593 989.75137185 989.75137185 0 0 1 284.07428741-45.54752 2.6335763 2.6335763 0 0 1 0 5.27928889A984.60558222 984.60558222 0 0 0 234.3388783 662.57676193a2.6335763 2.6335763 0 0 1-0.78885925 0.08495406zM244.93386496 797.08333376a2.6335763 2.6335763 0 0 1-1.6505363-4.70888296C318.67400126 732.3847382 407.86364275 683.5846908 515.96163387 643.15868784a2.6335763 2.6335763 0 0 1 1.84471702 4.93947258c-107.57613037 40.18327703-196.2924563 88.71632592-271.23408593 148.35408593a2.6335763 2.6335763 0 0 1-1.6384 0.63108741zM687.835862 600.49960635a2.6335763 2.6335763 0 0 1-1.21362962-4.97588148l20.02488888-10.61925924c102.5759763-54.61333333 154.05814518-82.07777185 278.5037274-93.98347854a2.6335763 2.6335763 0 1 1 0.49758817 5.2550163C862.25871238 507.9360745 811.11635978 535.1456508 709.17147089 589.5162582l-20.04916148 10.66780445a2.6335763 2.6335763 0 0 1-1.28644741 0.3155437zM973.74273017 642.04214858a2.6335763 2.6335763 0 0 1-1.89326223-0.80099556c-1.55344592-0.80099555-13.34992592-5.20647111-91.79894519-13.25283555-91.88389925-9.42990222-185.02997333-0.09709037-185.95233186 0a2.6335763 2.6335763 0 0 1-0.53399702-5.2550163c0.93449482-0.09709037 94.59029333-9.47844741 187.03246221 0 38.75119408 3.98070518 66.31272297 7.56091259 81.92 10.64353185 12.81592889 2.53648592 13.78683259 3.93216 13.87178667 5.92251261a2.6335763 2.6335763 0 0 1-2.53648592 2.74280295z m-2.6335763-2.42725925z m0 0z m0 0z m0 0z m0 0z m0 0z m0 0z m0 0z m0 0z" fill="#070707" p-id="5601"></path></svg>